#!OML:ASF I:\Actors\actors\Patient Classification 2\Patient 1\Session 1\actor1.ASF
:FULLY-SPECIFIED
:DEGREES
1012
root -0.658799 18.5863 6.08338 -2.89611 -5.4264 -4.79923
lowerback 2.30623 0.888615 0.276837
upperback 1.05299 1.19862 2.07178
thorax -0.252526 0.596051 1.93756
lowerneck -9.77861 -4.25583 -5.30183
upperneck 12.0559 -7.1623 15.2254
head 6.01976 -2.693 5.12913
rclavicle -8.03408e-015 -1.72943e-014
rhumerus -45.7279 -1.5672 -88.2231
rradius 41.9072
rwrist 16.5532
rhand -6.125 -28.2101
rfingers 7.12502
rthumb 19.7122 -57.2306
lclavicle -8.03408e-015 -1.72943e-014
lhumerus -38.8245 -0.641778 92.0615
lradius 36.6917
lwrist -11.2863
lhand -0.483246 -24.0014
lfingers 7.12502
lthumb 25.1274 4.36502
rfemur 0 0 0
rtibia 0
rfoot 0 0
rtoes 0
lfemur 0.402087 -9.08797 -11.7068
ltibia 24.2706
lfoot -27.0199 16.1086
ltoes -53.9018
1013
root -0.663579 18.5869 6.08157 -2.87543 -5.33961 -4.75853
lowerback 2.27584 0.892913 0.272733
upperback 1.04007 1.20406 2.06219
thorax -0.24881 0.598835 1.93024
lowerneck -9.84811 -4.16454 -5.16537
upperneck 12.0467 -7.03363 15.092
head 6.00511 -2.6306 5.07313
rclavicle -1.82032e-014 -8.94531e-016
rhumerus -45.7567 -1.7103 -88.0941
rradius 41.9232
rwrist 16.6169
rhand -8.32417 -26.291
rfingers 7.12502
rthumb 17.5969 -55.5146
lclavicle -1.82032e-014 -8.94531e-016
lhumerus -38.7704 -0.749327 92.1116
lradius 36.8022
lwrist -11.1883
lhand -0.614112 -23.9894
lfingers 7.12502
lthumb 25.002 4.39457
rfemur 0 0 0
rtibia 0
rfoot 0 0
rtoes 0
lfemur 0.352745 -9.07271 -11.7138
ltibia 24.2417
lfoot -26.9311 16.0078
ltoes -53.9192
1014
root -0.666598 18.5872 6.08022 -2.86139 -5.24685 -4.69841
lowerback 2.25244 0.893686 0.284355
upperback 1.02916 1.20511 2.0356
thorax -0.246115 0.599476 1.89666
lowerneck -9.8153 -4.08396 -5.02755
upperneck 11.9539 -6.90991 14.9536
head 5.94703 -2.57855 5.01498
rclavicle -1.07435e-014 -8.54774e-015
rhumerus -45.7502 -1.87735 -87.9497
rradius 41.8443
rwrist 16.7315
rhand -8.40343 -26.3114
rfingers 7.12502
rthumb 17.5206 -55.5419
lclavicle -1.07435e-014 -8.54774e-015
lhumerus -38.6753 -0.872131 92.1623
lradius 36.7966
lwrist -11.1267
lhand -0.835251 -24.0128
lfingers 7.12502
lthumb 24.7901 4.40045
rfemur 0 0 0
rtibia 0
rfoot 0 0
rtoes 0
lfemur 0.311665 -9.09664 -11.7583
ltibia 24.2169
lfoot -26.8562 15.9957
ltoes -54.0141
1015
root -0.670065 18.5877 6.08048 -2.84533 -5.17012 -4.65615
lowerback 2.20101 0.901043 0.304793
upperback 1.03403 1.21445 2.02746
thorax -0.212039 0.604107 1.87752
lowerneck -9.87107 -4.02751 -4.88467
upperneck 11.9396 -6.8222 14.7654
head 5.93109 -2.54022 4.93618
rclavicle -2.96294e-015 -9.93923e-016
rhumerus -45.7332 -2.03767 -87.7576
rradius 41.7197
rwrist 16.9053
rhand -6.25614 -27.9343
rfingers 7.12502
rthumb 19.5861 -56.9677
lclavicle -2.96294e-015 -9.93923e-016
lhumerus -38.5667 -0.965866 92.2447
lradius 36.7676
lwrist -10.9862
lhand -0.954018 -24.0725
lfingers 7.12502
lthumb 24.6763 4.35639
rfemur 0 0 0
rtibia 0
rfoot 0 0
rtoes 0
lfemur 0.279617 -9.12637 -11.7877
ltibia 24.2016
lfoot -26.8049 16.0194
ltoes -54.0562
1016
root -0.67464 18.5874 6.08077 -2.84823 -5.10979 -4.63056
lowerback 2.14995 0.908698 0.308428
upperback 1.05154 1.22375 2.0598
thorax -0.166425 0.608516 1.90952
lowerneck -10.1304 -4.0566 -4.84757
upperneck 12.134 -6.86395 14.5956
head 6.03388 -2.55174 4.86954
rclavicle 1.63957e-014 -1.2275e-014
rhumerus -45.7128 -2.09361 -87.5536
rradius 41.616
rwrist 17.0441
rhand -7.5251 -26.6886
rfingers 7.12502
rthumb 18.3657 -55.8416
lclavicle 1.63957e-014 -1.2275e-014
lhumerus -38.5207 -0.947381 92.3712
lradius 36.81
lwrist -10.8495
lhand -0.920895 -24.1163
lfingers 7.12502
lthumb 24.708 4.30827
rfemur 0 0 0
rtibia 0
rfoot 0 0
rtoes 0
lfemur 0.269559 -9.13541 -11.795
ltibia 24.1899
lfoot -26.769 15.994
ltoes -54.0427
1017
root -0.679104 18.5865 6.08026 -2.86061 -5.07708 -4.63407
lowerback 2.15516 0.914042 0.365911
upperback 1.05187 1.23208 2.07477
thorax -0.168375 0.612824 1.89234
lowerneck -10.4674 -4.14399 -4.86722
upperneck 12.4145 -7.00613 14.5466
head 6.19475 -2.59987 4.84252
rclavicle 3.5321e-014 2.26615e-014
rhumerus -45.6858 -2.09824 -87.4431
rradius 41.4616
rwrist 16.9872
rhand -6.17108 -27.5156
rfingers 7.12502
rthumb 19.6679 -56.5406
lclavicle 3.5321e-014 2.26615e-014
lhumerus -38.5692 -0.989092 92.4791
lradius 36.9297
lwrist -10.7304
lhand -0.910957 -24.1975
lfingers 7.12502
lthumb 24.7176 4.2257
rfemur 0 0 0
rtibia 0
rfoot 0 0
rtoes 0
lfemur 0.272981 -9.12485 -11.7683
ltibia 24.183
lfoot -26.7568 15.9737
ltoes -54.0966
1018
root -0.682835 18.5867 6.08018 -2.84578 -5.05479 -4.63074
lowerback 2.17097 0.917418 0.43773
upperback 1.02715 1.23861 2.04877
thorax -0.200661 0.616504 1.82466
lowerneck -10.6492 -4.14064 -4.81554
upperneck 12.5526 -7.0255 14.5451
head 6.27067 -2.59386 4.83094
rclavicle -8.08727e-015 3.32964e-015
rhumerus -45.6812 -2.14328 -87.3948
rradius 41.3508
rwrist 17.0172
rhand -5.47945 -27.7681
rfingers 7.12502
rthumb 20.3327 -56.7237
lclavicle -8.08727e-015 3.32964e-015
lhumerus -38.662 -1.09015 92.5211
lradius 37.0321
lwrist -10.6869
lhand -0.989088 -24.2743
lfingers 7.12502
lthumb 24.6427 4.1592
rfemur 0 0 0
rtibia 0
rfoot 0 0
rtoes 0
lfemur 0.249024 -9.08376 -11.7425
ltibia 24.1829
lfoot -26.7409 15.9449
ltoes -54.1901
1019
root -0.685027 18.5871 6.08073 -2.82987 -5.01715 -4.60877
lowerback 2.16669 0.925732 0.497971
upperback 1.0069 1.2511 2.02257
thorax -0.2175 0.623057 1.76352
lowerneck -10.7006 -4.08914 -4.82092
upperneck 12.5714 -6.96311 14.5965
head 6.28142 -2.55736 4.85467
rclavicle 7.79919e-015 1.77912e-014
rhumerus -45.6761 -2.27546 -87.297
rradius 41.2827
rwrist 17.1664
rhand -6.81658 -26.9497
rfingers 7.12502
rthumb 19.0472 -56.0371
lclavicle 7.79919e-015 1.77912e-014
lhumerus -38.7706 -1.1815 92.5849
lradius 37.1183
lwrist -10.6749
lhand -0.972709 -24.2545
lfingers 7.12502
lthumb 24.6584 4.17682
rfemur 0 0 0
rtibia 0
rfoot 0 0
rtoes 0
lfemur 0.220496 -9.04777 -11.7414
ltibia 24.1812
lfoot -26.7069 15.8676
ltoes -54.1947
